<?xml version="1.0" encoding="UTF-8"?>
<svg width="40px" height="40px" viewBox="0 0 40 40" version="1.1" xmlns="http://www.w3.org/2000/svg" xmlns:xlink="http://www.w3.org/1999/xlink">
    <title>mask_speech_bubble</title>
    <g id="Symbols" stroke="none" stroke-width="1" fill="none" fill-rule="evenodd">
        <g id="ai/mask/speech-bubble" fill="#000000" fill-rule="nonzero">
            <path d="M30.7935833,34.0484091 C23.6564167,35.7773636 18.453,31.4260909 18.453,26.7676364 C18.453,22.2937727 22.8588333,19.0641364 27.7265,19.0641364 C32.6239167,19.0641364 37,22.3177273 37,26.7676364 C37,28.3458182 36.4290833,29.8958182 35.4175833,31.0977727 C35.3765,32.5068636 36.2080833,34.5289091 36.9589167,36 C34.9486667,35.6378636 32.0884167,34.8389091 30.7935833,34.0484091 L30.7935833,34.0484091 Z M15.6196667,26.7676364 C15.6196667,20.9664091 21.0511667,16.2459545 27.7265,16.2459545 C28.9816667,16.2459545 30.1915,16.4136364 31.3305,16.7222273 C31.30075,9.91068182 24.58575,5 17.1666667,5 C9.68525,5 3,9.96986364 3,16.7687273 C3,19.1782727 3.87125,21.5469545 5.41541667,23.3844091 C5.482,25.5360909 4.20983333,28.6234091 3.06233333,30.8709091 C6.13366667,30.3199545 10.5026667,29.0982727 12.48175,27.8906818 C13.6193333,28.1668636 14.7144167,28.3190455 15.77975,28.4021818 C15.6848333,27.8681364 15.6196667,27.3242273 15.6196667,26.7676364 L15.6196667,26.7676364 Z" id="Shape"></path>
        </g>
    </g>
</svg>