<?xml version="1.0" encoding="UTF-8"?>
<svg width="40px" height="40px" viewBox="0 0 40 40" version="1.1" xmlns="http://www.w3.org/2000/svg" xmlns:xlink="http://www.w3.org/1999/xlink">
    <title>mask_spaceship</title>
    <g id="Symbols" stroke="none" stroke-width="1" fill="none" fill-rule="evenodd">
        <g id="ai/mask/spaceship" fill="#000000">
            <path d="M29.7179503,36.951 L30.2827412,40 L25.8706199,40 L26.3709503,37.295 L29.7179503,36.951 Z M10.3129503,36.952 L13.6609503,37.297 L14.161529,40 L9.74940782,40 L10.3129503,36.952 Z M23.4948624,37.3799127 L23.4948624,40 L16.5372866,40 L16.5372866,37.3799127 L23.4948624,37.3799127 Z M16.1818182,25.6990644 L16.1818182,37.0305677 L6,35.9825328 C6.17224226,33.6680634 6.60208463,32.2436017 7.28952711,31.7091476 C8.32069083,30.9074665 11.0499556,30.40553 13.6158869,28.3148153 C15.3265078,26.9210056 16.1818182,26.0490886 16.1818182,25.6990644 Z M23.8181818,25.6990644 C23.8181818,26.0490886 24.6734922,26.9210056 26.3841131,28.3148153 C28.9500444,30.40553 31.6793092,30.9074665 32.7104729,31.7091476 C33.3979154,32.2436017 33.8277577,33.6680634 34,35.9825328 L23.8181818,37.0305677 L23.8181818,25.6990644 Z M23.4948624,16.069869 L23.4948624,37.0305677 L16.5372866,37.0305677 L16.5372866,16.069869 L23.4948624,16.069869 Z M25.531226,21.1353712 L25.531226,21.4847162 L30.6221351,21.4847162 L30.6220233,30.1417413 C30.2796034,29.9972867 29.9674361,29.8634452 29.7848236,29.7787953 C28.6688233,29.2614745 27.6828444,28.6736075 26.7116777,27.9003335 L26.6363073,27.8400012 C26.2330964,27.5154874 25.8605989,27.2065527 25.5305993,26.9157607 L25.531226,21.1353712 Z M14.500923,21.4847162 L14.5008138,26.906596 C14.1464615,27.2185526 13.7428288,27.5512399 13.3043968,27.9003335 C12.3332301,28.6736075 11.3472512,29.2614745 10.2312509,29.7787953 C10.0513932,29.8621682 9.74614809,29.993168 9.40995027,30.1350628 L9.41001388,21.4847162 L14.500923,21.4847162 Z M25.1918321,7.33624454 L25.190038,26.6077288 C24.5197762,25.9833906 24.0864585,25.4556874 24.0245226,25.0538654 L24.0038302,24.6132271 L24.0039524,15.623985 L23.970532,15.5337883 C23.2555101,13.6040509 22.5679525,12.1571581 21.8521069,11.2059335 C21.2380435,10.3899581 20.6125515,9.9445293 19.9122252,9.9445293 C19.2076545,9.9445293 18.596155,10.3908864 18.0128728,11.2066946 C17.3294739,12.1625311 16.6960387,13.6159448 16.0281949,15.6337137 L16.0280726,24.610367 L16.0036867,25.0589925 C15.9438745,25.4478787 15.5119585,25.9743559 14.8416603,26.5984915 L14.8403169,7.68558952 L25.1918321,7.68558952 L25.1918321,7.33624454 Z M14.500923,19.7379913 L14.500923,21.1353712 L9.41001388,21.1353712 L9.41001388,19.7379913 L14.500923,19.7379913 Z M30.6221351,19.7379913 L30.6221351,21.1353712 L25.531226,21.1353712 L25.531226,19.7379913 L30.6221351,19.7379913 Z M30.6221351,17.9912664 L30.6221351,19.3886463 L25.531226,19.3886463 L25.531226,17.9912664 L30.6221351,17.9912664 Z M14.500923,17.9912664 L14.500923,19.3886463 L9.41001388,19.3886463 L9.41001388,17.9912664 L14.500923,17.9912664 Z M30.6221351,16.2445415 L30.6221351,17.6419214 L25.531226,17.6419214 L25.531226,16.2445415 L30.6221351,16.2445415 Z M14.500923,16.2445415 L14.500923,17.6419214 L9.41001388,17.6419214 L9.41001388,16.2445415 L14.500923,16.2445415 Z M28.0006933,10.4803493 C28.7990504,10.4803493 29.6728644,12.2270742 30.6221351,15.720524 L30.6221351,15.8951965 L25.531226,15.8951965 L25.531226,15.720524 C26.3791803,12.2270742 27.2023361,10.4803493 28.0006933,10.4803493 Z M11.8794811,10.4803493 C12.6778383,10.4803493 13.5516523,12.2270742 14.500923,15.720524 L14.500923,15.8951965 L9.41001388,15.8951965 L9.41001388,15.720524 C10.2579682,12.2270742 11.081124,10.4803493 11.8794811,10.4803493 Z M19.9122252,10.4685468 C21.0033133,10.4685468 22.1975257,12.2192059 23.4948624,15.720524 L16.5372866,15.720524 C17.6961575,12.2192059 18.8211371,10.4685468 19.9122252,10.4685468 Z M19.861567,0 C21.4848933,0 23.2616483,2.44541485 25.1918321,7.33624454 L14.8403169,7.33624454 C16.5644907,2.44541485 18.2382408,0 19.861567,0 Z" id="Combined-Shape"></path>
        </g>
    </g>
</svg>