<?xml version="1.0" encoding="UTF-8"?>
<svg width="40px" height="40px" viewBox="0 0 40 40" version="1.1" xmlns="http://www.w3.org/2000/svg" xmlns:xlink="http://www.w3.org/1999/xlink">
    <title>mask_girl</title>
    <g id="Symbols" stroke="none" stroke-width="1" fill="none" fill-rule="evenodd">
        <g id="ai/mask/girl" fill="#000000">
            <path d="M33.392872,28.3984295 C31.5435235,26.2675218 24.6899094,25.1307614 24.1759712,25.0486758 L24.1759712,22.5355314 C26.4845483,22.2809833 29.670965,21.6093742 30.6018562,19.8209043 C30.6018562,19.8209043 28.3413572,20.0431156 28.3413572,16.3301956 L28.3413572,11.288153 C28.3413572,3.28356826 21.1172102,3 21.1172102,3 L20.2775015,3 C18.5442036,3 17.0488093,3.66165927 16.3234934,4.97005316 C14.2892929,5.98741648 12.8784498,8.17470614 12.8784498,10.7168707 L12.8784498,16.3301956 C12.8784498,19.2927376 10.6196086,19.8209043 10.6196086,19.8209043 C12.593297,21.2785446 14.9549258,22.0015607 16.9360745,22.3580939 L16.9360745,24.9972687 L16.9360745,25.0727211 C16.8979436,25.027118 16.8780492,25.0005853 16.8780492,25.0005853 C16.8780492,25.0005853 9.52707556,26.183778 7.60643889,28.3984295 C5.68331542,30.6114227 6.02317776,37 6.02317776,37 L9.90755559,37 L10.8177235,37 L20.3836049,37 L20.4996555,37 L20.8229391,37 L30.1807585,37 L31.0909264,37 L34.9769621,37 C34.9769621,37 35.3159955,30.6114227 33.392872,28.3984295 Z" id="Path"></path>
        </g>
    </g>
</svg>