<?xml version="1.0" encoding="UTF-8"?>
<svg width="40px" height="40px" viewBox="0 0 40 40" version="1.1" xmlns="http://www.w3.org/2000/svg" xmlns:xlink="http://www.w3.org/1999/xlink">
    <title>mask_cloud</title>
    <g id="Symbols" stroke="none" stroke-width="1" fill="none" fill-rule="evenodd">
        <g id="ai/mask/cloud" fill="#000000">
            <path d="M7.19189857,31 C3.12695277,30.9000711 -0.0887819581,27.6086051 0.00187046717,23.6406452 C0.00187046717,19.5883871 3.22644066,16.2174194 7.18971735,16.2174194 C7.73563054,16.2173045 8.2795539,16.2816427 8.80963672,16.4090323 C9.03502945,12.2645161 12.0669252,9 16.1472607,9 C19.3143921,9 21.7842602,11.1503226 22.9497587,14.1451613 C23.9134957,13.2655273 25.1835182,12.7759637 26.5029661,12.7754839 C29.5555162,12.867078 31.9607941,15.345043 31.8898523,18.3251613 C31.8898523,18.396129 31.8898523,18.4741935 31.8854899,18.5451613 C32.469652,18.3669776 33.0780646,18.2760569 33.6900859,18.2754839 C35.3831726,18.2738682 37.0057537,18.937095 38.1924394,20.1158121 C39.379125,21.2945292 40.0301469,22.8896381 39.9989011,24.5419355 C40.0618325,27.9137842 37.4143514,30.7459292 33.968555,30.9929032 L33.968555,31 L7.19189857,31 L7.19189857,31 Z" id="Cloud_copy"></path>
        </g>
    </g>
</svg>