<?xml version="1.0" encoding="UTF-8"?>
<svg width="40px" height="40px" viewBox="0 0 40 40" version="1.1" xmlns="http://www.w3.org/2000/svg" xmlns:xlink="http://www.w3.org/1999/xlink">
    <title>mask_boy</title>
    <g id="Symbols" stroke="none" stroke-width="1" fill="none" fill-rule="evenodd">
        <g id="ai/mask/boy" fill="#000000">
            <path d="M33.2823109,28.2451469 C31.2281028,25.9906747 23.3934485,24.8290034 23.3934485,24.8290034 L23.3691433,24.8397904 L23.3691433,21.6966396 C24.6841382,20.5573719 25.8432446,18.9957537 26.2824144,17.3138196 C26.3503013,17.3295851 26.416512,17.3486697 26.4969706,17.3486697 C27.4105107,17.3486697 28.1514002,15.7920301 28.1514002,14.452789 C28.1514002,13.268714 27.5680755,12.6563473 26.7995284,12.5327123 C26.8405958,11.8606024 26.9017778,11.7112447 26.9948081,10.9412225 C27.4239205,7.3773808 28.3131554,4.00936368 25.1199555,5.00093315 C25.1199555,5.00093315 21.4406517,1.34913631 20.0795607,3.91228115 C20.0795607,3.91228115 10.6466302,0.365034729 11.9113385,8.5066913 C12.2373634,10.6043378 12.3915756,11.4681235 12.4561101,12.5103086 C11.5643609,12.5310527 10.8486147,13.1401004 10.8486147,14.452789 C10.8486147,15.7920301 11.5886661,17.3486697 12.5022062,17.3486697 C12.6270846,17.3486697 12.7326865,17.3246065 12.827393,17.2864373 C13.2481243,18.9285428 14.3569441,20.4536513 15.6300335,21.5895999 L15.6283573,24.7858556 L15.6300335,24.7858556 L15.6300335,24.7866854 L15.6283573,24.7858556 C15.6283573,24.7858556 7.7702359,25.9906747 5.71686587,28.2451469 C3.66181962,30.4971298 4.02472134,37 4.02472134,37 L8.17755747,37 L9.15060343,37 L18.713441,37 L19.3755481,37 L19.4995884,37 L19.6437433,37 L19.8457279,37 L20.3058504,37 L29.8485734,37 L30.8216193,37 L34.9752936,37 C34.9752936,37 35.3381953,30.4971298 33.2823109,28.2451469 Z" id="Path"></path>
        </g>
    </g>
</svg>