<?xml version="1.0" encoding="UTF-8"?>
<svg width="40px" height="40px" viewBox="0 0 40 40" version="1.1" xmlns="http://www.w3.org/2000/svg" xmlns:xlink="http://www.w3.org/1999/xlink">
    <title>mask_computer</title>
    <g id="Symbols" stroke="none" stroke-width="1" fill="none" fill-rule="evenodd">
        <g id="ai/mask/computer" fill="#000000">
            <path d="M3.45945946,31.254902 L36.5405405,31.254902 L40,35.5686275 L0,35.5686275 L3.45945946,31.254902 Z M0,36 L40,36 L40,35.5686275 L0,35.5686275 L0,36 Z M35.4565297,3 C36.0552124,3 36.5405405,3.48532818 36.5405405,4.08401084 L36.5405405,24.9944205 C36.5405405,25.5931032 36.0552124,26.0784314 35.4565297,26.0784314 L24.1614595,26.078 L24.6486486,28.0196078 L26.1621622,29.5294118 L26.1621622,29.9607843 L13.6216216,29.9607843 L13.6216216,29.5294118 L15.1351351,28.0196078 L15.6214595,26.078 L4.5434703,26.0784314 C3.94478764,26.0784314 3.45945946,25.5931032 3.45945946,24.9944205 L3.45945946,4.08401084 C3.45945946,3.48532818 3.94478764,3 4.5434703,3 L35.4565297,3 Z M34.8102249,4.50980392 L5.18977514,4.50980392 C5.07003861,4.50980392 4.97297297,4.60686956 4.97297297,4.72660609 L4.97297297,24.3518253 C4.97297297,24.4715618 5.07003861,24.5686275 5.18977514,24.5686275 L34.8102249,24.5686275 C34.9299614,24.5686275 35.027027,24.4715618 35.027027,24.3518253 L35.027027,4.72660609 C35.027027,4.60686956 34.9299614,4.50980392 34.8102249,4.50980392 Z M34.1615762,5.15686275 C34.2813127,5.15686275 34.3783784,5.25392838 34.3783784,5.37366491 L34.3783784,23.7047665 C34.3783784,23.824503 34.2813127,23.9215686 34.1615762,23.9215686 L5.83842379,23.9215686 C5.71868726,23.9215686 5.62162162,23.824503 5.62162162,23.7047665 L5.62162162,5.37366491 C5.62162162,5.25392838 5.71868726,5.15686275 5.83842379,5.15686275 L34.1615762,5.15686275 Z" id="Combined-Shape"></path>
        </g>
    </g>
</svg>