<?xml version="1.0" encoding="UTF-8"?>
<svg width="40px" height="40px" viewBox="0 0 40 40" version="1.1" xmlns="http://www.w3.org/2000/svg" xmlns:xlink="http://www.w3.org/1999/xlink">
    <title>mask_brain</title>
    <g id="Symbols" stroke="none" stroke-width="1" fill="none" fill-rule="evenodd">
        <g id="ai/mask/brain" fill="#000000" fill-rule="nonzero">
            <path d="M21.3333509,3.25 C28.4670192,3.25 34.25,9.05249976 34.25,16.2102459 C34.25,19.5689115 32.9695817,22.7259605 30.7220686,25.1111266 L30.6961227,25.1378874 L30.6957543,30.0295311 C30.6957209,30.349647 30.5308009,30.6450362 30.2631768,30.8129432 L30.1996225,30.8493812 L19.0926046,36.6445247 C18.4794414,36.9644457 17.7465968,36.5180192 17.7465968,35.8245779 L17.7467526,33.6126769 L17.7453831,33.5294422 C17.7281999,33.0616463 17.5265371,32.6301905 17.1958104,32.3189872 L17.1637763,32.2904319 L11.9534546,32.2909538 C10.5303284,32.2909538 9.34604285,31.2079982 9.20431867,29.7981879 L9.19597943,29.6969414 L8.93258748,25.6041736 L6.67208719,25.6042497 C6.03079238,25.6042497 5.59304684,24.9666544 5.80319648,24.3731074 L5.82821195,24.3097127 L8.46120564,18.269305 L8.41860118,17.6069088 C8.41146076,17.4955229 8.42423452,17.3877342 8.45376287,17.2869049 L8.45942852,17.2685283 L8.44513928,17.0766207 C8.43251924,16.8849731 8.42408701,16.6926912 8.41986774,16.4998701 L8.41670172,16.2102459 C8.41670172,9.05249976 14.1996825,3.25 21.3333509,3.25 Z" id="Path"></path>
        </g>
    </g>
</svg>